<?xml version="1.0" encoding="UTF-8"?>
<svg width="242px" height="241px" viewBox="0 0 242 241" version="1.1" xmlns="http://www.w3.org/2000/svg" xmlns:xlink="http://www.w3.org/1999/xlink" style="background: #202020;">
    <title>Dark_debug</title>
    <g id="Dark_debug" stroke="none" stroke-width="1" fill="none" fill-rule="evenodd">
        <rect fill="#202020" x="0" y="0" width="242" height="241"></rect>
        <g id="Group" transform="translate(0.284271, -0.284271)" fill="#2B2B2B">
            <g id="Ch_Expanded" transform="translate(181.284271, 181.284271) rotate(180.000000) translate(-181.284271, -181.284271) translate(121.000000, 121.000000)">
                <path d="M79.6227981,112.278912 C57.8364999,111.925681 40.2842712,94.1547473 40.2842712,72.2842712 L80.2842712,72.2842712 L80.2842712,112.284271 Z" id="Combined-Shape" transform="translate(60.284271, 92.284271) rotate(315.000000) translate(-60.284271, -92.284271) "></path>
                <path d="M79.6227981,48.2789124 C57.8364999,47.9256808 40.2842712,30.1547473 40.2842712,8.28427125 L80.2842712,8.28427125 L80.2842712,48.2842712 Z" id="Combined-Shape" transform="translate(60.284271, 28.284271) rotate(495.000000) translate(-60.284271, -28.284271) "></path>
                <path d="M112.284271,40.2842712 L112.284271,80.2832712 C90.4137952,80.2842712 72.6428617,62.7320426 72.2896301,40.9457444 L72.2842712,40.2842712 L112.284271,40.2842712 Z" id="HIDDEN" fill-opacity="0" transform="translate(92.284271, 60.284271) rotate(225.000000) translate(-92.284271, -60.284271) "></path>
                <path d="M47.6227981,80.2789124 C25.8364999,79.9256808 8.28427125,62.1547473 8.28427125,40.2842712 L48.2842712,40.2842712 L48.2842712,80.2842712 Z" id="Combined-Shape" transform="translate(28.284271, 60.284271) rotate(405.000000) translate(-28.284271, -60.284271) "></path>
            </g>
            <g id="Ch_Expanded" transform="translate(60.284271, 181.284271) rotate(270.000000) translate(-60.284271, -181.284271) translate(-0.000000, 121.000000)">
                <path d="M79.6227981,112.278912 C57.8364999,111.925681 40.2842712,94.1547473 40.2842712,72.2842712 L80.2842712,72.2842712 L80.2842712,112.284271 Z" id="Combined-Shape" transform="translate(60.284271, 92.284271) rotate(315.000000) translate(-60.284271, -92.284271) "></path>
                <path d="M79.6227981,48.2789124 C57.8364999,47.9256808 40.2842712,30.1547473 40.2842712,8.28427125 L80.2842712,8.28427125 L80.2842712,48.2842712 Z" id="Combined-Shape" transform="translate(60.284271, 28.284271) rotate(495.000000) translate(-60.284271, -28.284271) "></path>
                <path d="M112.284271,40.2842712 L112.284271,80.2832712 C90.4137952,80.2842712 72.6428617,62.7320426 72.2896301,40.9457444 L72.2842712,40.2842712 L112.284271,40.2842712 Z" id="HIDDEN" fill-opacity="0" transform="translate(92.284271, 60.284271) rotate(225.000000) translate(-92.284271, -60.284271) "></path>
                <path d="M47.6227981,80.2789124 C25.8364999,79.9256808 8.28427125,62.1547473 8.28427125,40.2842712 L48.2842712,40.2842712 L48.2842712,80.2842712 Z" id="Combined-Shape" transform="translate(28.284271, 60.284271) rotate(405.000000) translate(-28.284271, -60.284271) "></path>
            </g>
            <g id="Ch_Expanded" transform="translate(181.284271, 60.284271) rotate(90.000000) translate(-181.284271, -60.284271) translate(121.000000, 0.000000)">
                <path d="M79.6227981,112.278912 C57.8364999,111.925681 40.2842712,94.1547473 40.2842712,72.2842712 L80.2842712,72.2842712 L80.2842712,112.284271 Z" id="Combined-Shape" transform="translate(60.284271, 92.284271) rotate(315.000000) translate(-60.284271, -92.284271) "></path>
                <path d="M79.6227981,48.2789124 C57.8364999,47.9256808 40.2842712,30.1547473 40.2842712,8.28427125 L80.2842712,8.28427125 L80.2842712,48.2842712 Z" id="Combined-Shape" transform="translate(60.284271, 28.284271) rotate(495.000000) translate(-60.284271, -28.284271) "></path>
                <path d="M112.284271,40.2842712 L112.284271,80.2832712 C90.4137952,80.2842712 72.6428617,62.7320426 72.2896301,40.9457444 L72.2842712,40.2842712 L112.284271,40.2842712 Z" id="HIDDEN" fill-opacity="0" transform="translate(92.284271, 60.284271) rotate(225.000000) translate(-92.284271, -60.284271) "></path>
                <path d="M47.6227981,80.2789124 C25.8364999,79.9256808 8.28427125,62.1547473 8.28427125,40.2842712 L48.2842712,40.2842712 L48.2842712,80.2842712 Z" id="Combined-Shape" transform="translate(28.284271, 60.284271) rotate(405.000000) translate(-28.284271, -60.284271) "></path>
            </g>
            <g id="Ch_Expanded" transform="translate(0.000000, 0.000000)">
                <path d="M79.6227981,112.278912 C57.8364999,111.925681 40.2842712,94.1547473 40.2842712,72.2842712 L80.2842712,72.2842712 L80.2842712,112.284271 Z" id="Combined-Shape" transform="translate(60.284271, 92.284271) rotate(315.000000) translate(-60.284271, -92.284271) "></path>
                <path d="M79.6227981,48.2789124 C57.8364999,47.9256808 40.2842712,30.1547473 40.2842712,8.28427125 L80.2842712,8.28427125 L80.2842712,48.2842712 Z" id="Combined-Shape" transform="translate(60.284271, 28.284271) rotate(495.000000) translate(-60.284271, -28.284271) "></path>
                <path d="M112.284271,40.2842712 L112.284271,80.2832712 C90.4137952,80.2842712 72.6428617,62.7320426 72.2896301,40.9457444 L72.2842712,40.2842712 L112.284271,40.2842712 Z" id="HIDDEN" fill-opacity="0" transform="translate(92.284271, 60.284271) rotate(225.000000) translate(-92.284271, -60.284271) "></path>
                <path d="M47.6227981,80.2789124 C25.8364999,79.9256808 8.28427125,62.1547473 8.28427125,40.2842712 L48.2842712,40.2842712 L48.2842712,80.2842712 Z" id="Combined-Shape" transform="translate(28.284271, 60.284271) rotate(405.000000) translate(-28.284271, -60.284271) "></path>
            </g>
        </g>
        <text id="Debug" transform="translate(121.500000, 120.000000) rotate(-33.000000) translate(-121.500000, -120.000000) " font-family="Montserrat-Medium, Montserrat" font-size="33" font-weight="400" fill="#FF0000">
            <tspan x="63" y="132">Debug</tspan>
        </text>
    </g>
</svg>