<?xml version="1.0" encoding="UTF-8"?>
<svg width="24px" height="24px" viewBox="0 0 24 24" version="1.1" xmlns="http://www.w3.org/2000/svg" xmlns:xlink="http://www.w3.org/1999/xlink">
    <title>feather / align-justify</title>
    <defs>
        <path d="M3,5 C2.44772,5 2,5.44772 2,6 C2,6.55228 2.44772,7 3,7 L21,7 C21.5523,7 22,6.55228 22,6 C22,5.44772 21.5523,5 21,5 L3,5 Z M3,9 C2.44772,9 2,9.44772 2,10 C2,10.5523 2.44772,11 3,11 L21,11 C21.5523,11 22,10.5523 22,10 C22,9.44772 21.5523,9 21,9 L3,9 Z M2,14 C2,13.4477 2.44772,13 3,13 L21,13 C21.5523,13 22,13.4477 22,14 C22,14.5523 21.5523,15 21,15 L3,15 C2.44772,15 2,14.5523 2,14 Z M3,17 C2.44772,17 2,17.4477 2,18 C2,18.5523 2.44772,19 3,19 L21,19 C21.5523,19 22,18.5523 22,18 C22,17.4477 21.5523,17 21,17 L3,17 Z" id="path-1"></path>
    </defs>
    <g id="feather-/-align-justify" stroke="none" stroke-width="1" fill="none" fill-rule="evenodd">
        <mask id="mask-2" fill="white">
            <use xlink:href="#path-1"></use>
        </mask>
        <use id="Shape" fill="#18191F" xlink:href="#path-1"></use>
        <g id="COLOR/-black" mask="url(#mask-2)" fill="#18191F">
            <rect id="Rectangle" x="0" y="0" width="24" height="24"></rect>
        </g>
    </g>
</svg>