<?xml version="1.0" encoding="UTF-8"?>
<svg width="32px" height="32px" viewBox="0 0 32 32" version="1.1" xmlns="http://www.w3.org/2000/svg" xmlns:xlink="http://www.w3.org/1999/xlink">
    <title>_rating-star / Empty</title>
    <g id="_rating-star-/-Empty" stroke="none" stroke-width="1" fill="none" fill-rule="evenodd">
        <path d="M15.2827138,1.5932725 C15.7605079,1.40970296 16.3083313,1.40840571 16.8129348,1.63289144 C17.2648738,1.83394806 17.626274,2.19534828 17.8273306,2.64728727 L20.9556357,9.67915255 L28.6100365,10.4813817 C29.1593128,10.5389493 29.6332552,10.8137051 29.9554867,11.2113882 C30.2777182,11.6090712 30.4482387,12.1296814 30.3906711,12.6789577 C30.3391117,13.1709071 30.1070785,13.626298 29.7393889,13.957171 L24.0183871,19.1053319 L25.6207617,26.633002 C25.7357474,27.1731842 25.6208953,27.7088345 25.3422513,28.1381856 C25.0636072,28.5675368 24.6211713,28.8905889 24.0809891,29.0055745 C23.5971847,29.1085594 23.09238,29.0286062 22.6640787,28.781158 L16,24.9310311 L9.33592125,28.781158 C8.85771004,29.0574413 8.31278509,29.1137355 7.81834212,28.9814061 C7.32389914,28.8490767 6.87993814,28.5281236 6.60365481,28.0499124 C6.3562066,27.6216111 6.2762534,27.1168065 6.37923825,26.633002 L7.98161293,19.1053319 L2.26061108,13.957171 C1.85007463,13.5877414 1.62814458,13.0868828 1.60120606,12.5757476 C1.57426753,12.0646123 1.74232053,11.5432004 2.11175018,11.1326639 C2.44262322,10.7649743 2.89801406,10.5329411 3.3899635,10.4813817 L11.0443643,9.67915255 L14.1726694,2.64728727 C14.3971551,2.14268386 14.8049198,1.77684204 15.2827138,1.5932725 Z" id="Star" stroke="#474A57" stroke-width="2" fill="#FFFFFF"></path>
    </g>
</svg>