<svg width="207px" height="381px" viewBox="0 0 207 381" version="1.1" xmlns="http://www.w3.org/2000/svg" xmlns:xlink="http://www.w3.org/1999/xlink">
    <g id="Design" stroke="none" stroke-width="1" fill="none" fill-rule="evenodd">
        <g id="Sign-Up" transform="translate(-1216.000000, -582.000000)" fill="#000000" fill-rule="nonzero">
            <g id="cat-151326" transform="translate(1319.500000, 772.500000) scale(-1, 1) translate(-1319.500000, -772.500000) translate(1216.000000, 582.000000)">
                <path d="M9.79005177,359.405537 C2.49695684,350.992471 -1.1009647,338.235061 0.297080278,325.962875 C1.735455,311.734282 12.8536836,300.520043 9.79005177,285.136458 C8.27026336,251.624195 -2.70065841,222.598263 7.09010222,192.009275 C17.4190427,148.943669 51.9132819,135.858534 76.8653282,115.427429 C82.8127751,113.377636 87.2117343,109.190711 91.1903274,104.262507 C95.8556376,100.606266 99.9092536,96.097224 103.05029,91.7473116 C106.641622,80.8003433 104.757159,67.1810644 110.480728,56.4659696 C114.465275,49.567041 117.813915,41.956981 123.579957,36.49344 C149.656552,30.0693945 147.50034,3.81162518 157.034594,0.345058733 C170.602219,-3.41709654 161.529614,24.6388646 167.616389,33.2416448 C178.112047,33.6837553 185.524226,39.5097824 190.974299,46.8557533 C194.233189,54.298769 204.872978,53.5566151 206.714412,60.8914497 C208.285486,67.5756071 203.088228,76.1950917 198.12886,81.3849983 C193.768007,86.2722365 187.358118,87.098708 184.116654,92.823554 C179.07226,104.147167 185.812806,119.682285 186.230195,132.402707 C185.559316,145.743181 187.345694,160.544894 179.34913,171.292205 C178.150114,179.97453 170.14196,183.869446 167.305382,191.849787 C160.790302,203.080333 150.493514,222.803489 150.906735,236.215951 C151.038001,257.147792 158.826211,282.081537 161.976774,302.731391 C169.397289,306.391689 184.838898,302.575956 182.594564,311.618147 C172.703455,328.09428 114.855672,325.260493 103.745144,326.262759 C80.6448527,325.670905 56.9054774,327.124549 34.3668648,323.538625 C21.0290711,319.387972 18.7247976,330.157556 22.050414,341.628327 C25.2379327,347.64908 29.6523332,352.593193 35.6132762,356.160781 C45.785026,359.977464 56.3934166,364.741687 68.2549669,364.430666 C81.0255242,366.489288 91.7307698,364.849868 105.200747,363.454292 C113.407612,358.898358 148.130492,360.491285 129.592305,370.530208 C92.1031055,387.417987 26.9221363,383.991988 9.78596323,359.407446 L9.79005177,359.405537 Z" id="Path"></path>
            </g>
        </g>
    </g>
</svg>