<?xml version="1.0" encoding="UTF-8"?>
<svg width="22px" height="23px" viewBox="0 0 22 23" version="1.1" xmlns="http://www.w3.org/2000/svg" xmlns:xlink="http://www.w3.org/1999/xlink">
    <title>footer / grade 2</title>
    <g id="footer-/-grade-2" stroke="none" stroke-width="1" fill="none" fill-rule="evenodd">
        <rect id="shadow" x="0" y="0" width="22" height="23" rx="11"></rect>
        <rect id="bg" fill="#FF9692" x="0" y="0" width="22" height="23" rx="4"></rect>
        <g id="2" transform="translate(5.806500, 4.862000)" fill="#18191F" fill-rule="nonzero">
            <path d="M9.877,9.469 L9.877,12.138 L0.612,12.138 L0.612,10.03 L5.066,5.865 C5.49666667,5.457 5.78566667,5.1085 5.933,4.8195 C6.08033333,4.5305 6.154,4.23866667 6.154,3.944 C6.154,3.55866667 6.02366667,3.25833333 5.763,3.043 C5.50233333,2.82766667 5.12266667,2.72 4.624,2.72 C4.182,2.72 3.77683333,2.81916667 3.4085,3.0175 C3.04016667,3.21583333 2.737,3.502 2.499,3.876 L0,2.482 C0.464666667,1.71133333 1.11633333,1.105 1.955,0.663 C2.79366667,0.221 3.78533333,0 4.93,0 C5.83666667,0 6.6385,0.147333333 7.3355,0.442 C8.0325,0.736666667 8.5765,1.15883333 8.9675,1.7085 C9.3585,2.25816667 9.554,2.89566667 9.554,3.621 C9.554,4.267 9.41516667,4.87616667 9.1375,5.4485 C8.85983333,6.02083333 8.32433333,6.66966667 7.531,7.395 L5.287,9.469 L9.877,9.469 Z" id="Path"></path>
        </g>
    </g>
</svg>