<?xml version="1.0" encoding="UTF-8"?>
<svg width="22px" height="23px" viewBox="0 0 22 23" version="1.1" xmlns="http://www.w3.org/2000/svg" xmlns:xlink="http://www.w3.org/1999/xlink">
    <title>footer / grade 3</title>
    <g id="footer-/-grade-3" stroke="none" stroke-width="1" fill="none" fill-rule="evenodd">
        <rect id="shadow" x="0" y="0" width="22" height="23" rx="11"></rect>
        <rect id="bg" fill="#FFBD12" x="0" y="0" width="22" height="23" rx="4"></rect>
        <g id="3" transform="translate(5.806500, 5.100000)" fill="#18191F" fill-rule="nonzero">
            <path d="M6.749,4.76 C7.735,4.964 8.4915,5.36916667 9.0185,5.9755 C9.5455,6.58183333 9.809,7.31566667 9.809,8.177 C9.809,8.87966667 9.61916667,9.53133333 9.2395,10.132 C8.85983333,10.7326667 8.28183333,11.2171667 7.5055,11.5855 C6.72916667,11.9538333 5.76866667,12.138 4.624,12.138 C3.78533333,12.138 2.95516667,12.036 2.1335,11.832 C1.31183333,11.628 0.600666667,11.339 0,10.965 L1.224,8.432 C1.68866667,8.74933333 2.21283333,8.993 2.7965,9.163 C3.38016667,9.333 3.95533333,9.418 4.522,9.418 C5.1,9.418 5.559,9.31033333 5.899,9.095 C6.239,8.87966667 6.409,8.57366667 6.409,8.177 C6.409,7.40633333 5.80266667,7.021 4.59,7.021 L3.179,7.021 L3.179,4.896 L5.304,2.601 L0.612,2.601 L0.612,0 L9.214,0 L9.214,2.108 L6.749,4.76 Z" id="Path"></path>
        </g>
    </g>
</svg>