<?xml version="1.0" encoding="UTF-8"?>
<svg width="22px" height="23px" viewBox="0 0 22 23" version="1.1" xmlns="http://www.w3.org/2000/svg" xmlns:xlink="http://www.w3.org/1999/xlink">
    <title>footer / grade 5</title>
    <g id="footer-/-grade-5" stroke="none" stroke-width="1" fill="none" fill-rule="evenodd">
        <rect id="shadow" x="0" y="0" width="22" height="23" rx="11"></rect>
        <rect id="bg" fill="#1947E5" x="0" y="0" width="22" height="23" rx="4"></rect>
        <g id="5" transform="translate(5.976500, 5.100000)" fill="#BEBEBE" fill-rule="nonzero">
            <path d="M4.896,4.335 C6.562,4.335 7.7945,4.675 8.5935,5.355 C9.3925,6.035 9.792,6.94166667 9.792,8.075 C9.792,8.81166667 9.60216667,9.48883333 9.2225,10.1065 C8.84283333,10.7241667 8.26483333,11.2171667 7.4885,11.5855 C6.71216667,11.9538333 5.75166667,12.138 4.607,12.138 C3.76833333,12.138 2.93816667,12.036 2.1165,11.832 C1.29483333,11.628 0.589333333,11.339 0,10.965 L1.207,8.432 C1.683,8.74933333 2.20716667,8.993 2.7795,9.163 C3.35183333,9.333 3.927,9.418 4.505,9.418 C5.083,9.418 5.54483333,9.3075 5.8905,9.0865 C6.23616667,8.8655 6.409,8.55666667 6.409,8.16 C6.409,7.76333333 6.239,7.463 5.899,7.259 C5.559,7.055 4.95833333,6.953 4.097,6.953 L0.867,6.953 L1.462,0 L9.044,0 L9.044,2.601 L4.25,2.601 L4.097,4.335 L4.896,4.335 Z" id="Path"></path>
        </g>
    </g>
</svg>